<svg width="20" height="20" viewBox="0 0 20 20" fill="none" xmlns="http://www.w3.org/2000/svg">
<path d="M2.81983 13.3586H6.93736L6.93736 16.1825C6.93736 17.5373 7.34136 18.5208 8.1412 19.1044C9.39808 20.0266 11.1079 19.5084 11.1814 19.4839C11.4711 19.3941 11.6711 19.1207 11.6711 18.8146L11.6711 15.4072C11.6711 12.8852 14.6378 12.0079 14.7643 11.9752C14.7725 11.9711 14.7807 11.9711 14.7847 11.967L15.1234 11.8609C15.507 12.2241 16.0212 12.4445 16.5844 12.4445H17.8698C19.0451 12.4486 20 11.4937 20 10.3184V2.98928C20 1.81401 19.0451 0.859108 17.8698 0.859108H16.5844C16.0416 0.859108 15.5438 1.06315 15.1683 1.40185C14.6297 0.761168 13.8217 0.349007 12.9198 0.349007L4.57866 0.349007C2.64436 0.349007 1.35891 1.41002 1.13446 3.18516L0.0979385 9.69404L0.0408077 10.045C0.0163231 10.2082 0 10.3755 0 10.5428C0.00407982 12.0935 1.26913 13.3586 2.81983 13.3586ZM15.8539 2.9852C15.8539 2.58121 16.1804 2.25474 16.5844 2.25474H17.8698C18.2738 2.25474 18.6003 2.58121 18.6003 2.9852V10.3184C18.6003 10.7224 18.2738 11.0489 17.8698 11.0489H16.5844C16.1804 11.0489 15.8539 10.7224 15.8539 10.3184L15.8539 2.9852ZM1.4242 10.2613L2.51785 3.3892C2.51785 3.38104 2.52193 3.37288 2.52193 3.36472C2.5709 2.9648 2.71781 1.74464 4.57866 1.74464L12.9198 1.74464C13.7645 1.74464 14.4542 2.4343 14.4542 3.27902L14.4542 10.3184C14.4542 10.4123 14.4624 10.5061 14.4746 10.6L14.3726 10.6326C14.0747 10.7183 10.2714 11.8854 10.2714 15.4112L10.2714 18.2392C9.86737 18.28 9.33687 18.2515 8.96552 17.974C8.54928 17.6638 8.33707 17.064 8.33707 16.1825L8.33707 12.6567C8.33707 12.269 8.02285 11.9548 7.63518 11.9548H2.81983C2.03632 11.9548 1.40379 11.3182 1.40379 10.5388C1.40379 10.449 1.41195 10.3551 1.4242 10.2613Z" fill="#979797"/>
</svg>
