<svg width="20" height="20" viewBox="0 0 20 20" fill="none" xmlns="http://www.w3.org/2000/svg">
<path d="M17.1802 6.6414H13.0626V3.81749C13.0626 2.46266 12.6586 1.47919 11.8588 0.895637C10.6019 -0.026624 8.89206 0.491638 8.81861 0.516122C8.52887 0.6059 8.32891 0.879314 8.32891 1.18537V4.59284C8.32891 7.11478 5.36217 7.99215 5.23567 8.02479C5.2275 8.02888 5.21934 8.02888 5.21526 8.03296L4.87656 8.13906C4.49296 7.77587 3.97878 7.5555 3.41563 7.5555H2.13018C0.954907 7.55142 0 8.50633 0 9.6816V17.0107C0 18.186 0.954907 19.1409 2.13018 19.1409H3.41563C3.95838 19.1409 4.45623 18.9369 4.83167 18.5981C5.37033 19.2388 6.17833 19.651 7.08019 19.651H15.4213C17.3556 19.651 18.6411 18.59 18.8655 16.8148L19.9021 10.306L19.9592 9.95501C19.9837 9.79178 20 9.62447 20 9.45716C19.9959 7.90645 18.7309 6.6414 17.1802 6.6414ZM4.14609 17.0148C4.14609 17.4188 3.81963 17.7453 3.41563 17.7453H2.13018C1.72618 17.7453 1.39971 17.4188 1.39971 17.0148V9.6816C1.39971 9.2776 1.72618 8.95114 2.13018 8.95114H3.41563C3.81963 8.95114 4.14609 9.2776 4.14609 9.6816V17.0148ZM18.5758 9.73873L17.4821 16.6108C17.4821 16.619 17.4781 16.6271 17.4781 16.6353C17.4291 17.0352 17.2822 18.2554 15.4213 18.2554H7.08019C6.23546 18.2554 5.54581 17.5657 5.54581 16.721V9.6816C5.54581 9.58774 5.53765 9.49388 5.5254 9.40002L5.62742 9.36738C5.92532 9.28168 9.72863 8.11457 9.72863 4.58876V1.76077C10.1326 1.71996 10.6631 1.74852 11.0345 2.02602C11.4507 2.33616 11.6629 2.93604 11.6629 3.81749V7.3433C11.6629 7.73098 11.9771 8.0452 12.3648 8.0452H17.1802C17.9637 8.0452 18.5962 8.6818 18.5962 9.46124C18.5962 9.55101 18.588 9.64487 18.5758 9.73873Z" fill="#33A0FF"/>
</svg>
